# xmcd
#
# Track frame offsets: 
#        150
#        15472
#        32800
#        49002
#        80260
#        100917
#        111567
#        127440
#        142957
#        163640
#        180070
#        197445
#        210340
#        233225
#
# Disc length: 3390 seconds
#
# Revision: 7
# Processed by: cddbd v1.5.2PL0 Copyright (c) Steve Scherf et al.
# Submitted via: ExactAudioCopy v0.90b4
#
DISCID=b20d3c0e
DTITLE=Eric Bibb and Needed Time - Good Stuff
DYEAR=1997
DGENRE=Blues
TTITLE0=Good Stuff
TTITLE1=Saucer 'n' Cup
TTITLE2=Shingle By Shingle
TTITLE3=Don't Ever Let Nobody Drag Your Spirit Down
TTITLE4=Where the Green Grass Grows
TTITLE5=Blacksmith Island
TTITLE6=New World Comin' Through
TTITLE7=Too Much Whisky
TTITLE8=Nothin' Like You Used to Do
TTITLE9=All of My Love
TTITLE10=A Simple Song
TTITLE11=Happy Home Recipe
TTITLE12=Done Laid Around
TTITLE13=Rough Waters
EXTD=e Deacons,Paris and Andre De langeh: congoma\nBjÎrn Gideonsson: dru
EXTD=ms,percussion\n\nBacking vocals:Thiano\nJenny Bohman: harmonica\n
EXTD=Derrick Walker: harmonica\nHassan Batleneck guitar, guitars\nJann
EXTD=e Peterson: accordion, pump organ, pguitar, bouzouki\nNick Malmes
EXTD=trÎm: guitar\nGÎran Wennerbrandt: botNeeded Time:\nOlle Eriksson:
EXTD=bass\nChrister Lyssarides: mandolin, YEAR: 1997
EXTT0=
EXTT1=
EXTT2=
EXTT3=
EXTT4=
EXTT5=
EXTT6=
EXTT7=
EXTT8=
EXTT9=
EXTT10=
EXTT11=
EXTT12=
EXTT13=
PLAYORDER=
